<svg aria-roledescription="er" viewBox="0 0 628.1665649414062 262" style="max-width: 628.167px; background-color: white;" xmlns:xlink="http://www.w3.org/1999/xlink" xmlns="http://www.w3.org/2000/svg" width="100%" id="mermaid-0"><style>#mermaid-0{font-family:"trebuchet ms",verdana,arial,sans-serif;font-size:16px;fill:#000000;}#mermaid-0 .error-icon{fill:#552222;}#mermaid-0 .error-text{fill:#552222;stroke:#552222;}#mermaid-0 .edge-thickness-normal{stroke-width:2px;}#mermaid-0 .edge-thickness-thick{stroke-width:3.5px;}#mermaid-0 .edge-pattern-solid{stroke-dasharray:0;}#mermaid-0 .edge-pattern-dashed{stroke-dasharray:3;}#mermaid-0 .edge-pattern-dotted{stroke-dasharray:2;}#mermaid-0 .marker{fill:#000000;stroke:#000000;}#mermaid-0 .marker.cross{stroke:#000000;}#mermaid-0 svg{font-family:"trebuchet ms",verdana,arial,sans-serif;font-size:16px;}#mermaid-0 .entityBox{fill:#cde498;stroke:#13540c;}#mermaid-0 .attributeBoxOdd{fill:#ffffff;stroke:#13540c;}#mermaid-0 .attributeBoxEven{fill:#f2f2f2;stroke:#13540c;}#mermaid-0 .relationshipLabelBox{fill:hsl(78.1578947368, 58.4615384615%, 84.5098039216%);opacity:0.7;background-color:hsl(78.1578947368, 58.4615384615%, 84.5098039216%);}#mermaid-0 .relationshipLabelBox rect{opacity:0.5;}#mermaid-0 .relationshipLine{stroke:#000000;}#mermaid-0 .entityTitleText{text-anchor:middle;font-size:18px;fill:#000000;}#mermaid-0 :root{--mermaid-font-family:"trebuchet ms",verdana,arial,sans-serif;}</style><g/><defs><marker orient="auto" markerHeight="18" markerWidth="18" refY="9" refX="0" id="ONLY_ONE_START"><path d="M9,0 L9,18 M15,0 L15,18" fill="none" stroke="gray"/></marker></defs><defs><marker orient="auto" markerHeight="18" markerWidth="18" refY="9" refX="18" id="ONLY_ONE_END"><path d="M3,0 L3,18 M9,0 L9,18" fill="none" stroke="gray"/></marker></defs><defs><marker orient="auto" markerHeight="18" markerWidth="30" refY="9" refX="0" id="ZERO_OR_ONE_START"><circle r="6" cy="9" cx="21" fill="white" stroke="gray"/><path d="M9,0 L9,18" fill="none" stroke="gray"/></marker></defs><defs><marker orient="auto" markerHeight="18" markerWidth="30" refY="9" refX="30" id="ZERO_OR_ONE_END"><circle r="6" cy="9" cx="9" fill="white" stroke="gray"/><path d="M21,0 L21,18" fill="none" stroke="gray"/></marker></defs><defs><marker orient="auto" markerHeight="36" markerWidth="45" refY="18" refX="18" id="ONE_OR_MORE_START"><path d="M0,18 Q 18,0 36,18 Q 18,36 0,18 M42,9 L42,27" fill="none" stroke="gray"/></marker></defs><defs><marker orient="auto" markerHeight="36" markerWidth="45" refY="18" refX="27" id="ONE_OR_MORE_END"><path d="M3,9 L3,27 M9,18 Q27,0 45,18 Q27,36 9,18" fill="none" stroke="gray"/></marker></defs><defs><marker orient="auto" markerHeight="36" markerWidth="57" refY="18" refX="18" id="ZERO_OR_MORE_START"><circle r="6" cy="18" cx="48" fill="white" stroke="gray"/><path d="M0,18 Q18,0 36,18 Q18,36 0,18" fill="none" stroke="gray"/></marker></defs><defs><marker orient="auto" markerHeight="36" markerWidth="57" refY="18" refX="39" id="ZERO_OR_MORE_END"><circle r="6" cy="18" cx="9" fill="white" stroke="gray"/><path d="M21,18 Q39,0 57,18 Q39,36 21,18" fill="none" stroke="gray"/></marker></defs><g transform="translate(20,75 )" id="entity-produtos-2a3393e0-5e86-49b5-84b5-e494f1ac287f"><rect height="112" width="100.31866455078125" y="0" x="0" class="er entityBox"/><text style="dominant-baseline: middle; text-anchor: middle; font-size: 12px;" transform="translate(50.159332275390625,12)" y="0" x="0" id="text-entity-produtos-2a3393e0-5e86-49b5-84b5-e494f1ac287f" class="er entityLabel">produtos</text><rect height="22" width="37.39605712890625" y="24" x="0" class="er attributeBoxOdd"/><text style="dominant-baseline: middle; font-size: 10.2px;" transform="translate(5,35)" y="0" x="0" id="text-entity-produtos-2a3393e0-5e86-49b5-84b5-e494f1ac287f-attr-1-type" class="er entityLabel">String</text><rect height="22" width="40.23492431640625" y="24" x="37.39605712890625" class="er attributeBoxOdd"/><text style="dominant-baseline: middle; font-size: 10.2px;" transform="translate(42.39605712890625,35)" y="0" x="0" id="text-entity-produtos-2a3393e0-5e86-49b5-84b5-e494f1ac287f-attr-1-name" class="er entityLabel">id</text><rect height="22" width="22.68768310546875" y="24" x="77.6309814453125" class="er attributeBoxOdd"/><text style="dominant-baseline: middle; font-size: 10.2px;" transform="translate(82.6309814453125,35)" y="0" x="0" id="text-entity-produtos-2a3393e0-5e86-49b5-84b5-e494f1ac287f-attr-1-key" class="er entityLabel">PK</text><rect height="22" width="37.39605712890625" y="46" x="0" class="er attributeBoxEven"/><text style="dominant-baseline: middle; font-size: 10.2px;" transform="translate(5,57)" y="0" x="0" id="text-entity-produtos-2a3393e0-5e86-49b5-84b5-e494f1ac287f-attr-2-type" class="er entityLabel">String</text><rect height="22" width="40.23492431640625" y="46" x="37.39605712890625" class="er attributeBoxEven"/><text style="dominant-baseline: middle; font-size: 10.2px;" transform="translate(42.39605712890625,57)" y="0" x="0" id="text-entity-produtos-2a3393e0-5e86-49b5-84b5-e494f1ac287f-attr-2-name" class="er entityLabel">codigo</text><rect height="22" width="22.68768310546875" y="46" x="77.6309814453125" class="er attributeBoxEven"/><text style="dominant-baseline: middle; font-size: 10.2px;" transform="translate(82.6309814453125,57)" y="0" x="0" id="text-entity-produtos-2a3393e0-5e86-49b5-84b5-e494f1ac287f-attr-2-key" class="er entityLabel"/><rect height="22" width="37.39605712890625" y="68" x="0" class="er attributeBoxOdd"/><text style="dominant-baseline: middle; font-size: 10.2px;" transform="translate(5,79)" y="0" x="0" id="text-entity-produtos-2a3393e0-5e86-49b5-84b5-e494f1ac287f-attr-3-type" class="er entityLabel">String</text><rect height="22" width="40.23492431640625" y="68" x="37.39605712890625" class="er attributeBoxOdd"/><text style="dominant-baseline: middle; font-size: 10.2px;" transform="translate(42.39605712890625,79)" y="0" x="0" id="text-entity-produtos-2a3393e0-5e86-49b5-84b5-e494f1ac287f-attr-3-name" class="er entityLabel">title</text><rect height="22" width="22.68768310546875" y="68" x="77.6309814453125" class="er attributeBoxOdd"/><text style="dominant-baseline: middle; font-size: 10.2px;" transform="translate(82.6309814453125,79)" y="0" x="0" id="text-entity-produtos-2a3393e0-5e86-49b5-84b5-e494f1ac287f-attr-3-key" class="er entityLabel"/><rect height="22" width="37.39605712890625" y="90" x="0" class="er attributeBoxEven"/><text style="dominant-baseline: middle; font-size: 10.2px;" transform="translate(5,101)" y="0" x="0" id="text-entity-produtos-2a3393e0-5e86-49b5-84b5-e494f1ac287f-attr-4-type" class="er entityLabel">Int</text><rect height="22" width="40.23492431640625" y="90" x="37.39605712890625" class="er attributeBoxEven"/><text style="dominant-baseline: middle; font-size: 10.2px;" transform="translate(42.39605712890625,101)" y="0" x="0" id="text-entity-produtos-2a3393e0-5e86-49b5-84b5-e494f1ac287f-attr-4-name" class="er entityLabel">price</text><rect height="22" width="22.68768310546875" y="90" x="77.6309814453125" class="er attributeBoxEven"/><text style="dominant-baseline: middle; font-size: 10.2px;" transform="translate(82.6309814453125,101)" y="0" x="0" id="text-entity-produtos-2a3393e0-5e86-49b5-84b5-e494f1ac287f-attr-4-key" class="er entityLabel"/></g><g transform="translate(220.31866455078125,20 )" id="entity-Clientes-2096888b-d820-404b-9ae8-6f0012dfdd3e"><rect height="222" width="117.17750549316406" y="0" x="0" class="er entityBox"/><text style="dominant-baseline: middle; text-anchor: middle; font-size: 12px;" transform="translate(58.58875274658203,12)" y="0" x="0" id="text-entity-Clientes-2096888b-d820-404b-9ae8-6f0012dfdd3e" class="er entityLabel">Clientes</text><rect height="22" width="37.39605712890625" y="24" x="0" class="er attributeBoxOdd"/><text style="dominant-baseline: middle; font-size: 10.2px;" transform="translate(5,35)" y="0" x="0" id="text-entity-Clientes-2096888b-d820-404b-9ae8-6f0012dfdd3e-attr-1-type" class="er entityLabel">String</text><rect height="22" width="57.09376525878906" y="24" x="37.39605712890625" class="er attributeBoxOdd"/><text style="dominant-baseline: middle; font-size: 10.2px;" transform="translate(42.39605712890625,35)" y="0" x="0" id="text-entity-Clientes-2096888b-d820-404b-9ae8-6f0012dfdd3e-attr-1-name" class="er entityLabel">id</text><rect height="22" width="22.68768310546875" y="24" x="94.48982238769531" class="er attributeBoxOdd"/><text style="dominant-baseline: middle; font-size: 10.2px;" transform="translate(99.48982238769531,35)" y="0" x="0" id="text-entity-Clientes-2096888b-d820-404b-9ae8-6f0012dfdd3e-attr-1-key" class="er entityLabel">PK</text><rect height="22" width="37.39605712890625" y="46" x="0" class="er attributeBoxEven"/><text style="dominant-baseline: middle; font-size: 10.2px;" transform="translate(5,57)" y="0" x="0" id="text-entity-Clientes-2096888b-d820-404b-9ae8-6f0012dfdd3e-attr-2-type" class="er entityLabel">String</text><rect height="22" width="57.09376525878906" y="46" x="37.39605712890625" class="er attributeBoxEven"/><text style="dominant-baseline: middle; font-size: 10.2px;" transform="translate(42.39605712890625,57)" y="0" x="0" id="text-entity-Clientes-2096888b-d820-404b-9ae8-6f0012dfdd3e-attr-2-name" class="er entityLabel">email</text><rect height="22" width="22.68768310546875" y="46" x="94.48982238769531" class="er attributeBoxEven"/><text style="dominant-baseline: middle; font-size: 10.2px;" transform="translate(99.48982238769531,57)" y="0" x="0" id="text-entity-Clientes-2096888b-d820-404b-9ae8-6f0012dfdd3e-attr-2-key" class="er entityLabel"/><rect height="22" width="37.39605712890625" y="68" x="0" class="er attributeBoxOdd"/><text style="dominant-baseline: middle; font-size: 10.2px;" transform="translate(5,79)" y="0" x="0" id="text-entity-Clientes-2096888b-d820-404b-9ae8-6f0012dfdd3e-attr-3-type" class="er entityLabel">String</text><rect height="22" width="57.09376525878906" y="68" x="37.39605712890625" class="er attributeBoxOdd"/><text style="dominant-baseline: middle; font-size: 10.2px;" transform="translate(42.39605712890625,79)" y="0" x="0" id="text-entity-Clientes-2096888b-d820-404b-9ae8-6f0012dfdd3e-attr-3-name" class="er entityLabel">name</text><rect height="22" width="22.68768310546875" y="68" x="94.48982238769531" class="er attributeBoxOdd"/><text style="dominant-baseline: middle; font-size: 10.2px;" transform="translate(99.48982238769531,79)" y="0" x="0" id="text-entity-Clientes-2096888b-d820-404b-9ae8-6f0012dfdd3e-attr-3-key" class="er entityLabel"/><rect height="22" width="37.39605712890625" y="90" x="0" class="er attributeBoxEven"/><text style="dominant-baseline: middle; font-size: 10.2px;" transform="translate(5,101)" y="0" x="0" id="text-entity-Clientes-2096888b-d820-404b-9ae8-6f0012dfdd3e-attr-4-type" class="er entityLabel">String</text><rect height="22" width="57.09376525878906" y="90" x="37.39605712890625" class="er attributeBoxEven"/><text style="dominant-baseline: middle; font-size: 10.2px;" transform="translate(42.39605712890625,101)" y="0" x="0" id="text-entity-Clientes-2096888b-d820-404b-9ae8-6f0012dfdd3e-attr-4-name" class="er entityLabel">rg</text><rect height="22" width="22.68768310546875" y="90" x="94.48982238769531" class="er attributeBoxEven"/><text style="dominant-baseline: middle; font-size: 10.2px;" transform="translate(99.48982238769531,101)" y="0" x="0" id="text-entity-Clientes-2096888b-d820-404b-9ae8-6f0012dfdd3e-attr-4-key" class="er entityLabel"/><rect height="22" width="37.39605712890625" y="112" x="0" class="er attributeBoxOdd"/><text style="dominant-baseline: middle; font-size: 10.2px;" transform="translate(5,123)" y="0" x="0" id="text-entity-Clientes-2096888b-d820-404b-9ae8-6f0012dfdd3e-attr-5-type" class="er entityLabel">String</text><rect height="22" width="57.09376525878906" y="112" x="37.39605712890625" class="er attributeBoxOdd"/><text style="dominant-baseline: middle; font-size: 10.2px;" transform="translate(42.39605712890625,123)" y="0" x="0" id="text-entity-Clientes-2096888b-d820-404b-9ae8-6f0012dfdd3e-attr-5-name" class="er entityLabel">cpf</text><rect height="22" width="22.68768310546875" y="112" x="94.48982238769531" class="er attributeBoxOdd"/><text style="dominant-baseline: middle; font-size: 10.2px;" transform="translate(99.48982238769531,123)" y="0" x="0" id="text-entity-Clientes-2096888b-d820-404b-9ae8-6f0012dfdd3e-attr-5-key" class="er entityLabel"/><rect height="22" width="37.39605712890625" y="134" x="0" class="er attributeBoxEven"/><text style="dominant-baseline: middle; font-size: 10.2px;" transform="translate(5,145)" y="0" x="0" id="text-entity-Clientes-2096888b-d820-404b-9ae8-6f0012dfdd3e-attr-6-type" class="er entityLabel">String</text><rect height="22" width="57.09376525878906" y="134" x="37.39605712890625" class="er attributeBoxEven"/><text style="dominant-baseline: middle; font-size: 10.2px;" transform="translate(42.39605712890625,145)" y="0" x="0" id="text-entity-Clientes-2096888b-d820-404b-9ae8-6f0012dfdd3e-attr-6-name" class="er entityLabel">address</text><rect height="22" width="22.68768310546875" y="134" x="94.48982238769531" class="er attributeBoxEven"/><text style="dominant-baseline: middle; font-size: 10.2px;" transform="translate(99.48982238769531,145)" y="0" x="0" id="text-entity-Clientes-2096888b-d820-404b-9ae8-6f0012dfdd3e-attr-6-key" class="er entityLabel"/><rect height="22" width="37.39605712890625" y="156" x="0" class="er attributeBoxOdd"/><text style="dominant-baseline: middle; font-size: 10.2px;" transform="translate(5,167)" y="0" x="0" id="text-entity-Clientes-2096888b-d820-404b-9ae8-6f0012dfdd3e-attr-7-type" class="er entityLabel">String</text><rect height="22" width="57.09376525878906" y="156" x="37.39605712890625" class="er attributeBoxOdd"/><text style="dominant-baseline: middle; font-size: 10.2px;" transform="translate(42.39605712890625,167)" y="0" x="0" id="text-entity-Clientes-2096888b-d820-404b-9ae8-6f0012dfdd3e-attr-7-name" class="er entityLabel">city</text><rect height="22" width="22.68768310546875" y="156" x="94.48982238769531" class="er attributeBoxOdd"/><text style="dominant-baseline: middle; font-size: 10.2px;" transform="translate(99.48982238769531,167)" y="0" x="0" id="text-entity-Clientes-2096888b-d820-404b-9ae8-6f0012dfdd3e-attr-7-key" class="er entityLabel"/><rect height="22" width="37.39605712890625" y="178" x="0" class="er attributeBoxEven"/><text style="dominant-baseline: middle; font-size: 10.2px;" transform="translate(5,189)" y="0" x="0" id="text-entity-Clientes-2096888b-d820-404b-9ae8-6f0012dfdd3e-attr-8-type" class="er entityLabel">String</text><rect height="22" width="57.09376525878906" y="178" x="37.39605712890625" class="er attributeBoxEven"/><text style="dominant-baseline: middle; font-size: 10.2px;" transform="translate(42.39605712890625,189)" y="0" x="0" id="text-entity-Clientes-2096888b-d820-404b-9ae8-6f0012dfdd3e-attr-8-name" class="er entityLabel">tel</text><rect height="22" width="22.68768310546875" y="178" x="94.48982238769531" class="er attributeBoxEven"/><text style="dominant-baseline: middle; font-size: 10.2px;" transform="translate(99.48982238769531,189)" y="0" x="0" id="text-entity-Clientes-2096888b-d820-404b-9ae8-6f0012dfdd3e-attr-8-key" class="er entityLabel"/><rect height="22" width="37.39605712890625" y="200" x="0" class="er attributeBoxOdd"/><text style="dominant-baseline: middle; font-size: 10.2px;" transform="translate(5,211)" y="0" x="0" id="text-entity-Clientes-2096888b-d820-404b-9ae8-6f0012dfdd3e-attr-9-type" class="er entityLabel">String</text><rect height="22" width="57.09376525878906" y="200" x="37.39605712890625" class="er attributeBoxOdd"/><text style="dominant-baseline: middle; font-size: 10.2px;" transform="translate(42.39605712890625,211)" y="0" x="0" id="text-entity-Clientes-2096888b-d820-404b-9ae8-6f0012dfdd3e-attr-9-name" class="er entityLabel">profession</text><rect height="22" width="22.68768310546875" y="200" x="94.48982238769531" class="er attributeBoxOdd"/><text style="dominant-baseline: middle; font-size: 10.2px;" transform="translate(99.48982238769531,211)" y="0" x="0" id="text-entity-Clientes-2096888b-d820-404b-9ae8-6f0012dfdd3e-attr-9-key" class="er entityLabel"/></g><g transform="translate(437.4961700439453,53 )" id="entity-Alugueis-52599439-3aca-4cd3-80c9-26a3dfd88344"><rect height="156" width="170.67041015625" y="0" x="0" class="er entityBox"/><text style="dominant-baseline: middle; text-anchor: middle; font-size: 12px;" transform="translate(85.335205078125,12)" y="0" x="0" id="text-entity-Alugueis-52599439-3aca-4cd3-80c9-26a3dfd88344" class="er entityLabel">Alugueis</text><rect height="22" width="46.649749755859375" y="24" x="0" class="er attributeBoxOdd"/><text style="dominant-baseline: middle; font-size: 10.2px;" transform="translate(5,35)" y="0" x="0" id="text-entity-Alugueis-52599439-3aca-4cd3-80c9-26a3dfd88344-attr-1-type" class="er entityLabel">Int</text><rect height="22" width="54.12043762207031" y="24" x="46.649749755859375" class="er attributeBoxOdd"/><text style="dominant-baseline: middle; font-size: 10.2px;" transform="translate(51.649749755859375,35)" y="0" x="0" id="text-entity-Alugueis-52599439-3aca-4cd3-80c9-26a3dfd88344-attr-1-name" class="er entityLabel">id</text><rect height="22" width="22.68768310546875" y="24" x="100.77018737792969" class="er attributeBoxOdd"/><text style="dominant-baseline: middle; font-size: 10.2px;" transform="translate(105.77018737792969,35)" y="0" x="0" id="text-entity-Alugueis-52599439-3aca-4cd3-80c9-26a3dfd88344-attr-1-key" class="er entityLabel">PK</text><rect height="22" width="47.21253967285156" y="24" x="123.45787048339844" class="er attributeBoxOdd"/><text style="dominant-baseline: middle; font-size: 10.2px;" transform="translate(128.45787048339844,35)" y="0" x="0" id="text-entity-Alugueis-52599439-3aca-4cd3-80c9-26a3dfd88344-attr-1-comment" class="er entityLabel"/><rect height="22" width="46.649749755859375" y="46" x="0" class="er attributeBoxEven"/><text style="dominant-baseline: middle; font-size: 10.2px;" transform="translate(5,57)" y="0" x="0" id="text-entity-Alugueis-52599439-3aca-4cd3-80c9-26a3dfd88344-attr-2-type" class="er entityLabel">String</text><rect height="22" width="54.12043762207031" y="46" x="46.649749755859375" class="er attributeBoxEven"/><text style="dominant-baseline: middle; font-size: 10.2px;" transform="translate(51.649749755859375,57)" y="0" x="0" id="text-entity-Alugueis-52599439-3aca-4cd3-80c9-26a3dfd88344-attr-2-name" class="er entityLabel">title</text><rect height="22" width="22.68768310546875" y="46" x="100.77018737792969" class="er attributeBoxEven"/><text style="dominant-baseline: middle; font-size: 10.2px;" transform="translate(105.77018737792969,57)" y="0" x="0" id="text-entity-Alugueis-52599439-3aca-4cd3-80c9-26a3dfd88344-attr-2-key" class="er entityLabel"/><rect height="22" width="47.21253967285156" y="46" x="123.45787048339844" class="er attributeBoxEven"/><text style="dominant-baseline: middle; font-size: 10.2px;" transform="translate(128.45787048339844,57)" y="0" x="0" id="text-entity-Alugueis-52599439-3aca-4cd3-80c9-26a3dfd88344-attr-2-comment" class="er entityLabel"/><rect height="22" width="46.649749755859375" y="68" x="0" class="er attributeBoxOdd"/><text style="dominant-baseline: middle; font-size: 10.2px;" transform="translate(5,79)" y="0" x="0" id="text-entity-Alugueis-52599439-3aca-4cd3-80c9-26a3dfd88344-attr-3-type" class="er entityLabel">String</text><rect height="22" width="54.12043762207031" y="68" x="46.649749755859375" class="er attributeBoxOdd"/><text style="dominant-baseline: middle; font-size: 10.2px;" transform="translate(51.649749755859375,79)" y="0" x="0" id="text-entity-Alugueis-52599439-3aca-4cd3-80c9-26a3dfd88344-attr-3-name" class="er entityLabel">content</text><rect height="22" width="22.68768310546875" y="68" x="100.77018737792969" class="er attributeBoxOdd"/><text style="dominant-baseline: middle; font-size: 10.2px;" transform="translate(105.77018737792969,79)" y="0" x="0" id="text-entity-Alugueis-52599439-3aca-4cd3-80c9-26a3dfd88344-attr-3-key" class="er entityLabel"/><rect height="22" width="47.21253967285156" y="68" x="123.45787048339844" class="er attributeBoxOdd"/><text style="dominant-baseline: middle; font-size: 10.2px;" transform="translate(128.45787048339844,79)" y="0" x="0" id="text-entity-Alugueis-52599439-3aca-4cd3-80c9-26a3dfd88344-attr-3-comment" class="er entityLabel">nullable</text><rect height="22" width="46.649749755859375" y="90" x="0" class="er attributeBoxEven"/><text style="dominant-baseline: middle; font-size: 10.2px;" transform="translate(5,101)" y="0" x="0" id="text-entity-Alugueis-52599439-3aca-4cd3-80c9-26a3dfd88344-attr-4-type" class="er entityLabel">Boolean</text><rect height="22" width="54.12043762207031" y="90" x="46.649749755859375" class="er attributeBoxEven"/><text style="dominant-baseline: middle; font-size: 10.2px;" transform="translate(51.649749755859375,101)" y="0" x="0" id="text-entity-Alugueis-52599439-3aca-4cd3-80c9-26a3dfd88344-attr-4-name" class="er entityLabel">published</text><rect height="22" width="22.68768310546875" y="90" x="100.77018737792969" class="er attributeBoxEven"/><text style="dominant-baseline: middle; font-size: 10.2px;" transform="translate(105.77018737792969,101)" y="0" x="0" id="text-entity-Alugueis-52599439-3aca-4cd3-80c9-26a3dfd88344-attr-4-key" class="er entityLabel"/><rect height="22" width="47.21253967285156" y="90" x="123.45787048339844" class="er attributeBoxEven"/><text style="dominant-baseline: middle; font-size: 10.2px;" transform="translate(128.45787048339844,101)" y="0" x="0" id="text-entity-Alugueis-52599439-3aca-4cd3-80c9-26a3dfd88344-attr-4-comment" class="er entityLabel"/><rect height="22" width="46.649749755859375" y="112" x="0" class="er attributeBoxOdd"/><text style="dominant-baseline: middle; font-size: 10.2px;" transform="translate(5,123)" y="0" x="0" id="text-entity-Alugueis-52599439-3aca-4cd3-80c9-26a3dfd88344-attr-5-type" class="er entityLabel">String</text><rect height="22" width="54.12043762207031" y="112" x="46.649749755859375" class="er attributeBoxOdd"/><text style="dominant-baseline: middle; font-size: 10.2px;" transform="translate(51.649749755859375,123)" y="0" x="0" id="text-entity-Alugueis-52599439-3aca-4cd3-80c9-26a3dfd88344-attr-5-name" class="er entityLabel">author</text><rect height="22" width="22.68768310546875" y="112" x="100.77018737792969" class="er attributeBoxOdd"/><text style="dominant-baseline: middle; font-size: 10.2px;" transform="translate(105.77018737792969,123)" y="0" x="0" id="text-entity-Alugueis-52599439-3aca-4cd3-80c9-26a3dfd88344-attr-5-key" class="er entityLabel"/><rect height="22" width="47.21253967285156" y="112" x="123.45787048339844" class="er attributeBoxOdd"/><text style="dominant-baseline: middle; font-size: 10.2px;" transform="translate(128.45787048339844,123)" y="0" x="0" id="text-entity-Alugueis-52599439-3aca-4cd3-80c9-26a3dfd88344-attr-5-comment" class="er entityLabel"/><rect height="22" width="46.649749755859375" y="134" x="0" class="er attributeBoxEven"/><text style="dominant-baseline: middle; font-size: 10.2px;" transform="translate(5,145)" y="0" x="0" id="text-entity-Alugueis-52599439-3aca-4cd3-80c9-26a3dfd88344-attr-6-type" class="er entityLabel">Int</text><rect height="22" width="54.12043762207031" y="134" x="46.649749755859375" class="er attributeBoxEven"/><text style="dominant-baseline: middle; font-size: 10.2px;" transform="translate(51.649749755859375,145)" y="0" x="0" id="text-entity-Alugueis-52599439-3aca-4cd3-80c9-26a3dfd88344-attr-6-name" class="er entityLabel">authorId</text><rect height="22" width="22.68768310546875" y="134" x="100.77018737792969" class="er attributeBoxEven"/><text style="dominant-baseline: middle; font-size: 10.2px;" transform="translate(105.77018737792969,145)" y="0" x="0" id="text-entity-Alugueis-52599439-3aca-4cd3-80c9-26a3dfd88344-attr-6-key" class="er entityLabel"/><rect height="22" width="47.21253967285156" y="134" x="123.45787048339844" class="er attributeBoxEven"/><text style="dominant-baseline: middle; font-size: 10.2px;" transform="translate(128.45787048339844,145)" y="0" x="0" id="text-entity-Alugueis-52599439-3aca-4cd3-80c9-26a3dfd88344-attr-6-comment" class="er entityLabel"/></g></svg>